<svg version="1.1" id="Layer_1" xmlns="http://www.w3.org/2000/svg" xmlns:xlink="http://www.w3.org/1999/xlink" x="0px" y="0px"
	 width="100%" viewBox="0 0 2000 2250" enable-background="new 0 0 2000 2250" xml:space="preserve">
<path fill="#4C6971" opacity="1.000000" stroke="none" 
	d="
M2002.000000,932.000000 
	C2002.000000,1371.919067 2002.000000,1811.838013 2002.000000,2251.878418 
	C1335.536865,2251.878418 669.073792,2251.878418 2.000000,2251.878418 
	C2.000000,1851.277466 2.000000,1450.554688 2.712978,1048.808350 
	C4.639451,1049.309326 6.151053,1050.681152 7.020694,1052.381348 
	C16.714220,1071.333496 26.613503,1090.189087 35.869221,1109.354614 
	C58.384174,1155.975952 75.111374,1204.621216 85.431458,1255.384155 
	C87.610077,1266.100464 89.428459,1276.989990 90.112633,1287.881348 
	C90.759407,1298.177246 84.664894,1303.092285 74.383942,1302.201294 
	C71.252075,1301.929810 68.155312,1301.253418 63.663670,1300.545044 
	C63.663670,1313.070923 63.540138,1324.695068 63.690933,1336.315552 
	C63.955826,1356.729004 66.389641,1376.767822 74.708763,1395.700562 
	C93.033806,1437.405273 111.199852,1479.180542 129.716354,1520.800171 
	C160.274368,1589.485596 190.395767,1658.334595 213.241699,1730.094727 
	C214.026291,1732.559082 215.165115,1734.910522 216.117416,1737.261719 
	C228.701706,1737.627075 237.142609,1744.103149 243.913620,1753.402710 
	C249.309784,1760.814087 252.342209,1769.098389 253.838028,1778.126709 
	C257.817719,1802.146729 263.917328,1825.585205 273.888245,1847.894165 
	C285.025513,1872.812744 299.503082,1895.375488 321.160553,1912.513916 
	C343.679871,1930.334473 368.685211,1941.562378 398.230042,1940.408081 
	C410.208679,1939.939941 422.229279,1940.044067 434.216156,1940.391479 
	C458.577362,1941.097534 480.633087,1948.009521 498.760162,1965.193604 
	C502.119537,1968.378052 505.877411,1971.258179 509.808319,1973.705444 
	C539.992188,1992.496460 572.813904,2001.731812 608.444214,2000.042725 
	C613.010803,1999.826294 616.681519,2000.666626 620.683655,2002.857788 
	C636.147705,2011.324585 651.722595,2019.610840 667.489014,2027.498779 
	C706.196594,2046.864014 744.697205,2066.561768 780.610962,2090.912598 
	C786.773254,2095.091064 794.190063,2094.611816 800.108826,2090.229980 
	C801.796692,2088.980225 803.305847,2087.489258 804.898010,2086.107910 
	C811.371216,2095.653564 803.439819,2105.672363 807.716125,2115.613281 
	C815.123291,2114.886963 822.670227,2114.467773 830.115540,2113.363037 
	C869.878174,2107.465820 909.915771,2104.251221 950.014648,2102.603271 
	C973.563293,2101.635498 997.260315,2102.689697 1020.822388,2104.032715 
	C1051.728638,2105.793945 1082.148315,2111.053955 1111.935303,2119.774902 
	C1115.510742,2120.821777 1119.918701,2121.194824 1123.382202,2120.104980 
	C1147.319092,2112.573242 1170.847778,2114.086426 1193.583130,2123.805176 
	C1208.523926,2130.191650 1222.976318,2137.861816 1237.161255,2145.823242 
	C1246.043579,2150.808350 1255.374146,2151.642334 1264.918701,2151.479980 
	C1272.297852,2151.354736 1275.217651,2146.756348 1273.883911,2139.167236 
	C1273.331055,2136.021240 1272.495850,2132.924805 1271.604492,2128.991455 
	C1279.187256,2125.872559 1285.994263,2122.179443 1293.269287,2120.260498 
	C1310.278931,2115.774414 1327.719971,2112.849609 1344.590332,2107.933350 
	C1357.772461,2104.091797 1366.394653,2108.853271 1373.787109,2118.862061 
	C1377.539673,2123.942627 1381.124146,2129.255615 1385.546021,2133.707031 
	C1391.305786,2139.505127 1397.495361,2145.260254 1407.253906,2144.036621 
	C1407.393677,2142.093506 1407.601807,2140.468506 1407.612549,2138.842529 
	C1407.670898,2129.948730 1407.001343,2120.988281 1407.865234,2112.176514 
	C1409.185669,2098.708496 1416.692383,2092.197266 1430.420898,2091.754883 
	C1438.061523,2091.509033 1445.725098,2092.020264 1453.379150,2092.125244 
	C1458.211304,2092.191406 1463.045166,2092.137939 1467.677246,2092.137939 
	C1467.677246,2081.788818 1467.756836,2072.830078 1467.651001,2063.873535 
	C1467.572632,2057.245605 1469.409180,2051.392334 1474.021484,2046.550659 
	C1495.138184,2024.383301 1516.056763,2002.020996 1537.500610,1980.174561 
	C1546.757935,1970.743286 1557.249512,1962.581909 1569.726685,1956.635254 
	C1580.205078,1967.874268 1590.421753,1978.832520 1600.638306,1989.790771 
	C1601.425049,1989.429932 1602.211670,1989.069092 1602.998413,1988.708252 
	C1602.285278,1982.263550 1602.400024,1975.587769 1600.679077,1969.424438 
	C1597.521851,1958.117188 1592.183228,1947.846558 1583.263062,1939.661865 
	C1577.987061,1934.820923 1572.179565,1930.108032 1570.608521,1921.512939 
	C1572.873169,1920.248779 1574.978882,1918.659546 1577.349976,1917.823242 
	C1586.444824,1914.615112 1595.593750,1911.550781 1604.780273,1908.614014 
	C1618.646973,1904.180786 1631.672729,1904.948608 1643.062378,1915.212891 
	C1643.734985,1915.819336 1644.894897,1915.885010 1645.996094,1916.661377 
	C1647.027344,1917.111450 1647.890381,1917.102295 1648.753540,1917.093140 
	C1648.249023,1916.298706 1647.744507,1915.504150 1646.993652,1914.024292 
	C1645.647705,1911.287842 1644.403076,1909.300171 1643.474121,1907.174561 
	C1639.930420,1899.067261 1641.078979,1895.222900 1648.405273,1890.337769 
	C1654.939575,1885.980713 1662.109619,1883.653809 1670.004883,1883.670532 
	C1676.669922,1883.684570 1683.341309,1883.851685 1689.998657,1883.622803 
	C1704.776611,1883.114868 1715.356323,1875.575562 1719.861816,1861.545166 
	C1722.074829,1854.654175 1723.583740,1847.357910 1724.074219,1840.153931 
	C1724.417603,1835.110229 1726.058350,1831.538086 1729.171265,1827.786133 
	C1747.428833,1805.780029 1766.058716,1784.043579 1783.425415,1761.345703 
	C1819.739868,1713.883057 1849.874634,1662.595825 1875.957153,1608.840942 
	C1892.673340,1574.389648 1907.536865,1539.178589 1921.366455,1503.503662 
	C1922.507446,1500.560547 1923.400391,1497.521362 1924.408447,1494.526733 
	C1919.833984,1495.482544 1916.833862,1497.440674 1913.993286,1499.607788 
	C1887.493774,1519.824219 1865.681519,1544.273926 1848.102417,1572.561401 
	C1846.003174,1575.939331 1843.787720,1579.338379 1841.098389,1582.238159 
	C1833.824463,1590.081055 1827.387817,1590.794678 1818.194336,1585.301514 
	C1816.934082,1584.548462 1815.592163,1583.932251 1813.844116,1583.021362 
	C1810.205322,1594.012085 1806.864380,1604.103271 1803.523438,1614.194458 
	C1802.950806,1614.048828 1802.378052,1613.903198 1801.805420,1613.757568 
	C1801.805420,1606.718628 1801.805420,1599.679688 1801.805420,1591.585327 
	C1799.898315,1593.004517 1798.877075,1593.739380 1797.882202,1594.508301 
	C1772.615723,1614.041260 1747.404663,1633.646118 1722.078125,1653.100952 
	C1634.152832,1720.642334 1544.549927,1785.850464 1451.756348,1846.584106 
	C1439.264771,1854.759888 1426.546021,1862.807251 1413.167603,1869.349976 
	C1398.636353,1876.456299 1388.086792,1872.279541 1379.341064,1858.318237 
	C1377.827759,1855.902344 1376.236938,1853.535034 1374.230713,1850.452026 
	C1371.294312,1852.904785 1369.074951,1854.811157 1366.800171,1856.649048 
	C1360.097900,1862.063110 1353.797241,1868.127686 1346.541992,1872.661865 
	C1338.914307,1877.428833 1332.854614,1873.915283 1332.041382,1864.901367 
	C1331.691162,1861.020264 1332.762573,1857.010864 1333.360352,1852.676147 
	C1333.348511,1851.790771 1333.164551,1851.289185 1332.980713,1850.787476 
	C1332.598145,1851.130371 1332.215454,1851.473389 1330.928223,1851.739258 
	C1324.403198,1851.634888 1318.713623,1852.161743 1313.175537,1851.472290 
	C1298.799561,1849.682739 1295.461182,1851.450439 1289.710327,1864.914429 
	C1288.407349,1867.965210 1286.516968,1870.765137 1284.851685,1873.761841 
	C1278.211792,1869.309570 1278.933472,1860.380737 1270.000732,1857.874390 
	C1268.302734,1867.235718 1266.696167,1876.093628 1265.085327,1884.974976 
	C1257.409180,1876.623779 1253.984619,1876.768555 1246.859253,1886.034790 
	C1244.327637,1889.327148 1242.201904,1892.931396 1240.328003,1895.738525 
	C1230.691772,1884.191040 1221.398315,1873.054199 1211.737549,1861.217773 
	C1210.351440,1860.165161 1209.332642,1859.812256 1208.313965,1859.459473 
	C1208.784058,1861.069946 1209.254028,1862.680420 1209.891479,1865.041016 
	C1212.659912,1873.806030 1216.350220,1881.711426 1212.675415,1891.701538 
	C1209.138306,1888.651978 1206.344116,1886.242798 1202.646362,1883.054443 
	C1201.436646,1893.025635 1200.370972,1901.810791 1199.431030,1909.558960 
	C1192.782593,1914.946289 1185.570312,1918.785400 1181.232178,1924.724121 
	C1172.241699,1937.031494 1160.279663,1940.945679 1146.022217,1941.729126 
	C1110.086914,1943.703613 1074.783203,1949.698486 1040.014282,1959.020264 
	C1036.342651,1960.004517 1032.043091,1959.964111 1028.301392,1959.159668 
	C1001.019226,1953.294922 973.903992,1946.620605 946.547668,1941.142578 
	C901.925659,1932.207153 856.833862,1926.398560 811.514893,1922.221802 
	C789.391785,1920.182861 767.130188,1918.547241 745.299866,1914.659546 
	C699.826416,1906.560791 658.555176,1887.468262 619.564697,1863.163940 
	C618.264648,1862.353516 617.072571,1861.370117 615.631958,1860.323364 
	C637.002197,1845.407104 642.268127,1834.906006 634.356262,1822.054199 
	C629.467102,1832.962402 620.074646,1836.619263 609.601562,1838.609619 
	C603.403320,1839.787598 597.060364,1840.580688 591.098022,1842.518066 
	C585.080933,1844.473267 581.149597,1842.616333 576.901978,1838.495850 
	C552.055237,1814.392212 527.089783,1790.409058 501.988373,1766.570435 
	C480.758606,1746.408447 459.234650,1726.556641 437.940430,1706.462280 
	C406.960541,1677.227539 375.531128,1648.441162 345.303131,1618.446167 
	C318.619476,1591.968140 293.293274,1564.120605 267.415497,1536.832642 
	C247.513947,1515.846558 231.875427,1492.053101 220.831390,1465.298462 
	C209.030411,1436.710083 197.459900,1408.025635 185.473618,1379.515503 
	C181.711517,1370.567139 178.659821,1361.128784 171.774704,1352.401245 
	C169.286484,1355.286865 167.632629,1357.866455 165.369644,1359.689941 
	C160.836288,1363.342407 155.358765,1363.641602 151.762329,1359.744629 
	C144.389420,1351.755493 139.123749,1342.499146 139.928192,1331.132324 
	C140.150452,1327.991943 141.620270,1324.666382 143.355881,1321.964233 
	C146.816879,1316.575806 151.203094,1315.443359 157.082550,1317.971313 
	C159.981720,1319.217896 162.668793,1320.957764 166.819626,1323.219727 
	C165.177170,1311.409424 163.767029,1300.945068 162.260101,1290.494629 
	C157.712463,1258.957153 152.938736,1227.450562 148.650558,1195.877930 
	C146.964828,1183.466431 143.454453,1170.874023 147.965714,1158.404663 
	C151.009262,1149.992188 154.218445,1141.531372 158.439819,1133.675781 
	C167.203186,1117.367798 173.813385,1100.689819 174.520691,1081.806396 
	C175.003998,1068.903442 177.019989,1056.053955 178.448410,1043.191284 
	C183.721954,995.703674 189.057968,948.223083 194.326553,900.734924 
	C197.364365,873.353882 200.173416,845.965576 206.197128,818.993835 
	C220.127487,756.619629 244.476608,698.719116 279.602661,645.322815 
	C299.951874,614.389221 323.083435,585.711853 347.955170,558.289917 
	C374.833313,528.655884 403.792633,501.204895 433.104523,474.072876 
	C452.390381,456.221252 471.365112,438.016632 491.076385,420.647827 
	C502.761566,410.351349 514.844543,400.125214 528.072937,392.032013 
	C569.508057,366.681885 611.498047,342.233551 653.414856,317.677734 
	C687.872437,297.491669 722.886719,278.394989 759.528259,262.305389 
	C831.575745,230.668762 906.983521,216.027069 985.463135,216.385956 
	C999.081116,216.448212 1012.701965,217.670380 1026.309570,217.483780 
	C1033.511719,217.385025 1040.825317,215.944656 1047.845459,214.156143 
	C1059.383423,211.216690 1066.909424,203.436783 1070.123169,192.071213 
	C1071.822510,186.061356 1073.041382,179.707336 1073.117310,173.492050 
	C1073.256226,162.130920 1072.385132,150.757446 1071.909668,138.739838 
	C1062.886719,141.237549 1054.888062,143.208679 1047.487061,138.768051 
	C1040.678223,134.682739 1034.285889,129.885864 1027.826050,125.241119 
	C1021.090759,120.398430 1014.865662,114.726372 1007.744568,110.569908 
	C998.476196,105.160126 989.099731,102.463348 977.773071,107.600502 
	C961.769409,114.858856 944.776794,119.922874 928.257446,126.060867 
	C887.984924,141.024750 848.258667,157.186295 811.811523,180.348358 
	C804.926147,184.723969 798.237915,189.409775 790.079590,194.876572 
	C790.515930,190.080490 790.851624,187.175995 791.031311,184.261871 
	C791.501404,176.638229 792.260864,169.009262 792.237061,161.384521 
	C792.210632,152.923431 787.893555,149.585083 780.016418,152.352402 
	C775.465393,153.951187 771.125488,156.938019 767.487671,160.191467 
	C758.807434,167.954544 750.879333,176.564911 742.126953,184.239471 
	C732.394287,192.773529 722.280640,200.908737 711.955261,208.718399 
	C705.346680,213.716858 697.906921,215.005035 689.313232,213.166946 
	C674.476074,209.993469 659.467712,210.751007 644.978333,215.650650 
	C607.633362,228.278961 582.289307,253.728531 567.890015,289.970306 
	C565.071655,297.063843 561.734680,300.294891 554.409668,299.914886 
	C551.767822,299.777832 549.078796,300.463531 546.444397,300.285156 
	C531.870239,299.298523 517.246155,298.667877 502.753815,296.949188 
	C483.964142,294.720886 467.346252,298.269836 452.547272,310.787384 
	C418.735382,339.386749 386.278656,369.431519 354.868256,400.623352 
	C335.949036,419.410889 317.058655,438.229156 298.316498,457.192902 
	C269.905182,485.940063 270.958435,479.525665 256.033875,525.430298 
	C251.985321,537.882812 246.232132,549.422852 237.855194,559.602478 
	C218.343811,583.312683 195.614929,603.828857 173.449478,624.922485 
	C154.182861,643.257446 134.691895,661.400208 116.220718,680.517517 
	C85.868004,711.931885 65.563881,749.464966 51.647293,790.687866 
	C35.512318,838.481873 27.839417,888.048401 20.224586,937.649780 
	C15.539535,968.167297 10.737330,998.667419 5.774084,1029.140503 
	C5.273028,1032.216919 3.293454,1035.052612 2.000007,1038.000000 
	C2.000000,692.739319 2.000000,347.478638 2.000000,2.108989 
	C668.453735,2.108989 1334.907471,2.108989 2002.000000,2.108989 
	C2002.000000,308.722443 2002.000000,615.445312 2001.379150,923.363586 
	C1993.814575,928.161926 1988.097534,933.066284 1984.114136,939.908936 
	C1981.938843,943.645752 1979.806641,947.453247 1977.196289,950.879456 
	C1974.023315,955.044434 1970.438477,958.984009 1963.673218,957.771179 
	C1963.673218,953.462769 1963.762085,949.483398 1963.658203,945.508972 
	C1963.137329,925.565002 1963.242920,905.574890 1961.847412,885.690857 
	C1959.943115,858.557617 1957.239746,831.465759 1954.228149,804.428650 
	C1950.333130,769.461853 1945.874146,734.556763 1941.466187,699.649231 
	C1940.642334,693.125610 1939.065674,686.871277 1935.369019,680.977600 
	C1875.589722,585.666748 1816.020630,490.224030 1756.354126,394.842285 
	C1748.768311,382.715790 1741.888550,369.973206 1732.985352,358.877136 
	C1704.263184,323.081055 1670.143433,292.970917 1632.464844,266.843994 
	C1588.700195,236.496796 1541.353516,213.287704 1491.294189,195.308105 
	C1440.488403,177.060425 1388.764771,165.351761 1334.231079,169.498062 
	C1316.994751,170.808563 1299.595703,170.569229 1282.290283,170.179718 
	C1269.926147,169.901398 1261.316895,175.334244 1254.610962,184.906693 
	C1252.389526,188.077652 1250.490601,191.474503 1248.229858,195.113083 
	C1238.085938,189.680450 1227.479614,189.333069 1216.758179,189.661240 
	C1208.106445,189.926056 1199.430420,189.803085 1190.804199,190.408447 
	C1173.763550,191.604340 1159.675171,198.461823 1152.232544,214.522263 
	C1144.540283,231.121750 1147.269775,247.003754 1158.709229,261.201141 
	C1172.578857,278.414703 1190.370117,290.530945 1210.281006,299.629669 
	C1240.072876,313.243744 1271.590088,318.938171 1304.172974,319.795105 
	C1307.958618,319.894623 1312.152588,320.980927 1315.389160,322.903015 
	C1348.003906,342.271759 1381.249023,360.724396 1412.781616,381.738190 
	C1466.514771,417.546783 1519.251831,454.857513 1572.197754,491.837433 
	C1606.036743,515.472229 1639.518188,539.619446 1673.115234,563.599670 
	C1681.219116,569.383850 1690.062622,571.787598 1699.477295,568.298218 
	C1710.640381,564.160950 1721.455322,559.090088 1732.463745,554.526733 
	C1735.938965,553.086182 1738.945068,549.989563 1743.618408,550.893188 
	C1743.618408,554.855652 1744.061890,558.574463 1743.536987,562.151062 
	C1741.825073,573.814575 1743.435303,585.277527 1745.399780,596.672668 
	C1750.475464,626.113892 1762.628540,653.187500 1774.072388,680.469299 
	C1775.596558,684.102844 1778.018188,687.385864 1780.209229,690.709167 
	C1788.084229,702.653809 1799.089355,711.171875 1811.009155,718.693604 
	C1840.664551,737.406799 1851.098145,765.666992 1849.229736,799.035034 
	C1848.552002,811.137085 1844.623779,823.099609 1841.701904,835.008789 
	C1840.775269,838.785828 1840.713013,841.849365 1842.343140,845.457153 
	C1852.791626,868.582581 1865.007935,890.725647 1879.922485,911.233459 
	C1893.242065,929.548157 1907.349243,947.273865 1927.120728,959.371155 
	C1931.834229,962.255127 1933.150391,967.138977 1933.575928,972.208679 
	C1933.881470,975.850586 1933.230469,979.602722 1933.782104,983.186218 
	C1934.427856,987.380981 1935.234619,991.805298 1937.178833,995.493591 
	C1941.382080,1003.467468 1948.417114,1004.635193 1955.434082,999.013306 
	C1958.174438,996.817810 1960.577881,994.201721 1963.891968,991.059265 
	C1963.891968,994.326294 1964.051270,996.288574 1963.868286,998.218262 
	C1961.268555,1025.632446 1958.254761,1053.013672 1956.121460,1080.463501 
	C1954.779175,1097.735474 1956.119385,1114.997559 1960.057617,1132.638794 
	C1960.832031,1135.187378 1961.681641,1137.049316 1962.531250,1138.911133 
	C1962.865234,1138.788208 1963.199219,1138.665161 1963.533203,1138.542236 
	C1963.533203,1136.312744 1963.533203,1134.083252 1963.763916,1131.003174 
	C1965.221069,1116.965210 1966.399048,1103.772949 1967.683350,1090.591064 
	C1971.289185,1053.579956 1976.904785,1016.869812 1986.311279,980.882507 
	C1990.632324,964.350891 1996.715698,948.279907 2002.000000,932.000000 
M455.577942,1376.481689 
	C453.639099,1385.251221 451.652527,1394.010498 449.768982,1402.791870 
	C436.040588,1466.795532 422.234039,1530.782837 408.713806,1594.830444 
	C406.390381,1605.836914 404.555756,1617.060181 403.871124,1628.267456 
	C403.158020,1639.940796 411.194214,1650.211182 422.543427,1653.579834 
	C427.237579,1654.973267 432.332306,1655.558838 437.248413,1655.577515 
	C477.577484,1655.730957 517.924072,1654.966187 558.230774,1655.926880 
	C582.207642,1656.498535 603.221313,1641.299561 607.922607,1614.963623 
	C612.241882,1590.767456 617.823608,1566.795288 622.921204,1542.739746 
	C642.691040,1449.445068 662.511597,1356.161133 682.271240,1262.864380 
	C702.237122,1168.593750 722.145569,1074.311035 742.110413,980.040161 
	C743.309875,974.376404 744.786377,968.771362 746.133911,963.138977 
	C753.567017,981.862305 759.638489,1000.488037 765.518066,1019.174194 
	C783.382141,1075.948608 801.167114,1132.747803 818.992310,1189.534302 
	C833.531311,1235.851929 848.039978,1282.179077 862.655518,1328.472534 
	C867.359497,1343.372070 871.804443,1358.389526 877.358704,1372.975708 
	C885.411804,1394.124146 897.693665,1402.206787 919.949341,1402.307495 
	C940.613770,1402.400879 961.278931,1402.287109 981.943542,1402.339478 
	C998.398621,1402.381226 1012.663696,1396.871216 1024.194336,1385.147949 
	C1030.945801,1378.283813 1037.453125,1371.098999 1043.370850,1363.512817 
	C1054.219360,1349.605835 1064.552734,1335.296753 1075.096191,1321.151978 
	C1105.332764,1280.587280 1135.595825,1240.042236 1165.795654,1199.450317 
	C1217.452637,1130.017944 1269.064209,1060.551514 1320.736450,991.130371 
	C1321.924927,989.533630 1323.608398,988.305481 1326.324585,985.687439 
	C1320.407715,1013.842163 1314.959351,1040.170288 1309.333618,1066.460571 
	C1292.785645,1143.793457 1276.227661,1221.124390 1259.561890,1298.431885 
	C1238.624512,1395.553955 1217.574341,1492.651733 1196.580078,1589.761597 
	C1194.543579,1599.181519 1192.376343,1608.578125 1190.582275,1618.044678 
	C1186.957642,1637.169678 1197.203369,1652.230835 1215.885376,1655.336426 
	C1218.813354,1655.823242 1221.863647,1655.650879 1224.857422,1655.652222 
	C1265.520386,1655.669556 1306.191284,1655.180664 1346.843262,1655.850220 
	C1370.195312,1656.234863 1389.358154,1640.384399 1394.216919,1617.135742 
	C1408.355347,1549.483276 1423.171509,1481.972778 1437.576904,1414.375854 
	C1454.683838,1334.102417 1471.572021,1253.782471 1488.680664,1173.509521 
	C1505.096191,1096.487549 1521.708496,1019.507629 1538.169312,942.495239 
	C1558.449951,847.610901 1578.712280,752.722656 1598.833374,657.804321 
	C1600.959229,647.775574 1603.089844,637.568420 1603.437988,627.383179 
	C1603.986328,611.342407 1593.028320,599.958923 1576.916016,599.823425 
	C1533.590332,599.459045 1490.258789,599.601501 1446.931274,599.841614 
	C1437.787598,599.892273 1428.929443,602.650513 1422.030396,608.812866 
	C1415.103271,615.000244 1408.385132,621.661682 1402.751587,629.016235 
	C1376.036011,663.893555 1349.700073,699.062012 1323.269775,734.157532 
	C1254.789917,825.089172 1186.318115,916.026855 1117.869629,1006.982178 
	C1079.441162,1058.046509 1041.071289,1109.154907 1002.651184,1160.225464 
	C1000.576477,1162.983276 998.281128,1165.575073 995.131348,1169.409302 
	C986.817749,1143.493164 979.191772,1119.441406 971.389038,1095.447266 
	C944.543457,1012.895325 917.628784,930.365845 890.755798,847.822876 
	C878.709839,810.822693 866.713562,773.806396 854.670532,736.805237 
	C843.141357,701.382751 832.771362,665.521057 819.633179,630.704834 
	C810.211609,605.737854 800.158569,599.320251 776.682495,599.562317 
	C737.690247,599.964478 698.675171,600.326477 659.700989,599.395569 
	C640.228882,598.930542 617.805359,613.539429 613.321838,636.813965 
	C606.786316,670.740723 598.942383,704.414429 591.740723,738.214050 
	C576.229675,811.012451 560.823242,883.833130 545.279602,956.624573 
	C528.140076,1036.889648 510.884674,1117.129883 493.699310,1197.385132 
	C481.036285,1256.521240 468.404694,1315.664307 455.577942,1376.481689 
M1207.049927,1856.705200 
	C1206.858154,1856.857666 1206.535400,1856.992188 1206.511475,1857.167603 
	C1206.487549,1857.342773 1206.762573,1857.558838 1206.906494,1857.756958 
	C1207.098633,1857.604858 1207.290894,1857.452759 1207.049927,1856.705200 
z"/>
<path fill="#FEFEFE" opacity="1.000000" stroke="none" 
	d="
M1645.828003,1916.202271 
	C1644.894897,1915.885010 1643.734985,1915.819336 1643.062378,1915.212891 
	C1631.672729,1904.948608 1618.646973,1904.180786 1604.780273,1908.614014 
	C1595.593750,1911.550781 1586.444824,1914.615112 1577.349976,1917.823242 
	C1574.978882,1918.659546 1572.873169,1920.248779 1570.608521,1921.512939 
	C1572.179565,1930.108032 1577.987061,1934.820923 1583.263062,1939.661865 
	C1592.183228,1947.846558 1597.521851,1958.117188 1600.679077,1969.424438 
	C1602.400024,1975.587769 1602.285278,1982.263550 1602.998413,1988.708252 
	C1602.211670,1989.069092 1601.425049,1989.429932 1600.638306,1989.790771 
	C1590.421753,1978.832520 1580.205078,1967.874268 1569.726685,1956.635254 
	C1557.249512,1962.581909 1546.757935,1970.743286 1537.500610,1980.174561 
	C1516.056763,2002.020996 1495.138184,2024.383301 1474.021484,2046.550659 
	C1469.409180,2051.392334 1467.572632,2057.245605 1467.651001,2063.873535 
	C1467.756836,2072.830078 1467.677246,2081.788818 1467.677246,2092.137939 
	C1463.045166,2092.137939 1458.211304,2092.191406 1453.379150,2092.125244 
	C1445.725098,2092.020264 1438.061523,2091.509033 1430.420898,2091.754883 
	C1416.692383,2092.197266 1409.185669,2098.708496 1407.865234,2112.176514 
	C1407.001343,2120.988281 1407.670898,2129.948730 1407.612549,2138.842529 
	C1407.601807,2140.468506 1407.393677,2142.093506 1407.253906,2144.036621 
	C1397.495361,2145.260254 1391.305786,2139.505127 1385.546021,2133.707031 
	C1381.124146,2129.255615 1377.539673,2123.942627 1373.787109,2118.862061 
	C1366.394653,2108.853271 1357.772461,2104.091797 1344.590332,2107.933350 
	C1327.719971,2112.849609 1310.278931,2115.774414 1293.269287,2120.260498 
	C1285.994263,2122.179443 1279.187256,2125.872559 1271.604492,2128.991455 
	C1272.495850,2132.924805 1273.331055,2136.021240 1273.883911,2139.167236 
	C1275.217651,2146.756348 1272.297852,2151.354736 1264.918701,2151.479980 
	C1255.374146,2151.642334 1246.043579,2150.808350 1237.161255,2145.823242 
	C1222.976318,2137.861816 1208.523926,2130.191650 1193.583130,2123.805176 
	C1170.847778,2114.086426 1147.319092,2112.573242 1123.382202,2120.104980 
	C1119.918701,2121.194824 1115.510742,2120.821777 1111.935303,2119.774902 
	C1082.148315,2111.053955 1051.728638,2105.793945 1020.822388,2104.032715 
	C997.260315,2102.689697 973.563293,2101.635498 950.014648,2102.603271 
	C909.915771,2104.251221 869.878174,2107.465820 830.115540,2113.363037 
	C822.670227,2114.467773 815.123291,2114.886963 807.716125,2115.613281 
	C803.439819,2105.672363 811.371216,2095.653564 804.898010,2086.107910 
	C803.305847,2087.489258 801.796692,2088.980225 800.108826,2090.229980 
	C794.190063,2094.611816 786.773254,2095.091064 780.610962,2090.912598 
	C744.697205,2066.561768 706.196594,2046.864014 667.489014,2027.498779 
	C651.722595,2019.610840 636.147705,2011.324585 620.683655,2002.857788 
	C616.681519,2000.666626 613.010803,1999.826294 608.444214,2000.042725 
	C572.813904,2001.731812 539.992188,1992.496460 509.808319,1973.705444 
	C505.877411,1971.258179 502.119537,1968.378052 498.760162,1965.193604 
	C480.633087,1948.009521 458.577362,1941.097534 434.216156,1940.391479 
	C422.229279,1940.044067 410.208679,1939.939941 398.230042,1940.408081 
	C368.685211,1941.562378 343.679871,1930.334473 321.160553,1912.513916 
	C299.503082,1895.375488 285.025513,1872.812744 273.888245,1847.894165 
	C263.917328,1825.585205 257.817719,1802.146729 253.838028,1778.126709 
	C252.342209,1769.098389 249.309784,1760.814087 243.913620,1753.402710 
	C237.142609,1744.103149 228.701706,1737.627075 216.117416,1737.261719 
	C215.165115,1734.910522 214.026291,1732.559082 213.241699,1730.094727 
	C190.395767,1658.334595 160.274368,1589.485596 129.716354,1520.800171 
	C111.199852,1479.180542 93.033806,1437.405273 74.708763,1395.700562 
	C66.389641,1376.767822 63.955826,1356.729004 63.690933,1336.315552 
	C63.540138,1324.695068 63.663670,1313.070923 63.663670,1300.545044 
	C68.155312,1301.253418 71.252075,1301.929810 74.383942,1302.201294 
	C84.664894,1303.092285 90.759407,1298.177246 90.112633,1287.881348 
	C89.428459,1276.989990 87.610077,1266.100464 85.431458,1255.384155 
	C75.111374,1204.621216 58.384174,1155.975952 35.869221,1109.354614 
	C26.613503,1090.189087 16.714220,1071.333496 7.020694,1052.381348 
	C6.151053,1050.681152 4.639451,1049.309326 2.712978,1047.892578 
	C2.000000,1045.222168 2.000000,1042.444458 2.000007,1038.833252 
	C3.293454,1035.052612 5.273028,1032.216919 5.774084,1029.140503 
	C10.737330,998.667419 15.539535,968.167297 20.224586,937.649780 
	C27.839417,888.048401 35.512318,838.481873 51.647293,790.687866 
	C65.563881,749.464966 85.868004,711.931885 116.220718,680.517517 
	C134.691895,661.400208 154.182861,643.257446 173.449478,624.922485 
	C195.614929,603.828857 218.343811,583.312683 237.855194,559.602478 
	C246.232132,549.422852 251.985321,537.882812 256.033875,525.430298 
	C270.958435,479.525665 269.905182,485.940063 298.316498,457.192902 
	C317.058655,438.229156 335.949036,419.410889 354.868256,400.623352 
	C386.278656,369.431519 418.735382,339.386749 452.547272,310.787384 
	C467.346252,298.269836 483.964142,294.720886 502.753815,296.949188 
	C517.246155,298.667877 531.870239,299.298523 546.444397,300.285156 
	C549.078796,300.463531 551.767822,299.777832 554.409668,299.914886 
	C561.734680,300.294891 565.071655,297.063843 567.890015,289.970306 
	C582.289307,253.728531 607.633362,228.278961 644.978333,215.650650 
	C659.467712,210.751007 674.476074,209.993469 689.313232,213.166946 
	C697.906921,215.005035 705.346680,213.716858 711.955261,208.718399 
	C722.280640,200.908737 732.394287,192.773529 742.126953,184.239471 
	C750.879333,176.564911 758.807434,167.954544 767.487671,160.191467 
	C771.125488,156.938019 775.465393,153.951187 780.016418,152.352402 
	C787.893555,149.585083 792.210632,152.923431 792.237061,161.384521 
	C792.260864,169.009262 791.501404,176.638229 791.031311,184.261871 
	C790.851624,187.175995 790.515930,190.080490 790.079590,194.876572 
	C798.237915,189.409775 804.926147,184.723969 811.811523,180.348358 
	C848.258667,157.186295 887.984924,141.024750 928.257446,126.060867 
	C944.776794,119.922874 961.769409,114.858856 977.773071,107.600502 
	C989.099731,102.463348 998.476196,105.160126 1007.744568,110.569908 
	C1014.865662,114.726372 1021.090759,120.398430 1027.826050,125.241119 
	C1034.285889,129.885864 1040.678223,134.682739 1047.487061,138.768051 
	C1054.888062,143.208679 1062.886719,141.237549 1071.909668,138.739838 
	C1072.385132,150.757446 1073.256226,162.130920 1073.117310,173.492050 
	C1073.041382,179.707336 1071.822510,186.061356 1070.123169,192.071213 
	C1066.909424,203.436783 1059.383423,211.216690 1047.845459,214.156143 
	C1040.825317,215.944656 1033.511719,217.385025 1026.309570,217.483780 
	C1012.701965,217.670380 999.081116,216.448212 985.463135,216.385956 
	C906.983521,216.027069 831.575745,230.668762 759.528259,262.305389 
	C722.886719,278.394989 687.872437,297.491669 653.414856,317.677734 
	C611.498047,342.233551 569.508057,366.681885 528.072937,392.032013 
	C514.844543,400.125214 502.761566,410.351349 491.076385,420.647827 
	C471.365112,438.016632 452.390381,456.221252 433.104523,474.072876 
	C403.792633,501.204895 374.833313,528.655884 347.955170,558.289917 
	C323.083435,585.711853 299.951874,614.389221 279.602661,645.322815 
	C244.476608,698.719116 220.127487,756.619629 206.197128,818.993835 
	C200.173416,845.965576 197.364365,873.353882 194.326553,900.734924 
	C189.057968,948.223083 183.721954,995.703674 178.448410,1043.191284 
	C177.019989,1056.053955 175.003998,1068.903442 174.520691,1081.806396 
	C173.813385,1100.689819 167.203186,1117.367798 158.439819,1133.675781 
	C154.218445,1141.531372 151.009262,1149.992188 147.965714,1158.404663 
	C143.454453,1170.874023 146.964828,1183.466431 148.650558,1195.877930 
	C152.938736,1227.450562 157.712463,1258.957153 162.260101,1290.494629 
	C163.767029,1300.945068 165.177170,1311.409424 166.819626,1323.219727 
	C162.668793,1320.957764 159.981720,1319.217896 157.082550,1317.971313 
	C151.203094,1315.443359 146.816879,1316.575806 143.355881,1321.964233 
	C141.620270,1324.666382 140.150452,1327.991943 139.928192,1331.132324 
	C139.123749,1342.499146 144.389420,1351.755493 151.762329,1359.744629 
	C155.358765,1363.641602 160.836288,1363.342407 165.369644,1359.689941 
	C167.632629,1357.866455 169.286484,1355.286865 171.774704,1352.401245 
	C178.659821,1361.128784 181.711517,1370.567139 185.473618,1379.515503 
	C197.459900,1408.025635 209.030411,1436.710083 220.831390,1465.298462 
	C231.875427,1492.053101 247.513947,1515.846558 267.415497,1536.832642 
	C293.293274,1564.120605 318.619476,1591.968140 345.303131,1618.446167 
	C375.531128,1648.441162 406.960541,1677.227539 437.940430,1706.462280 
	C459.234650,1726.556641 480.758606,1746.408447 501.988373,1766.570435 
	C527.089783,1790.409058 552.055237,1814.392212 576.901978,1838.495850 
	C581.149597,1842.616333 585.080933,1844.473267 591.098022,1842.518066 
	C597.060364,1840.580688 603.403320,1839.787598 609.601562,1838.609619 
	C620.074646,1836.619263 629.467102,1832.962402 634.356262,1822.054199 
	C642.268127,1834.906006 637.002197,1845.407104 615.631958,1860.323364 
	C617.072571,1861.370117 618.264648,1862.353516 619.564697,1863.163940 
	C658.555176,1887.468262 699.826416,1906.560791 745.299866,1914.659546 
	C767.130188,1918.547241 789.391785,1920.182861 811.514893,1922.221802 
	C856.833862,1926.398560 901.925659,1932.207153 946.547668,1941.142578 
	C973.903992,1946.620605 1001.019226,1953.294922 1028.301392,1959.159668 
	C1032.043091,1959.964111 1036.342651,1960.004517 1040.014282,1959.020264 
	C1074.783203,1949.698486 1110.086914,1943.703613 1146.022217,1941.729126 
	C1160.279663,1940.945679 1172.241699,1937.031494 1181.232178,1924.724121 
	C1185.570312,1918.785400 1192.782593,1914.946289 1199.431030,1909.558960 
	C1200.370972,1901.810791 1201.436646,1893.025635 1202.646362,1883.054443 
	C1206.344116,1886.242798 1209.138306,1888.651978 1212.675415,1891.701538 
	C1216.350220,1881.711426 1212.659912,1873.806030 1210.245605,1864.602783 
	C1210.989868,1862.915527 1211.547485,1862.416504 1212.104980,1861.917480 
	C1221.398315,1873.054199 1230.691772,1884.191040 1240.328003,1895.738525 
	C1242.201904,1892.931396 1244.327637,1889.327148 1246.859253,1886.034790 
	C1253.984619,1876.768555 1257.409180,1876.623779 1265.085327,1884.974976 
	C1266.696167,1876.093628 1268.302734,1867.235718 1270.000732,1857.874390 
	C1278.933472,1860.380737 1278.211792,1869.309570 1284.851685,1873.761841 
	C1286.516968,1870.765137 1288.407349,1867.965210 1289.710327,1864.914429 
	C1295.461182,1851.450439 1298.799561,1849.682739 1313.175537,1851.472290 
	C1318.713623,1852.161743 1324.403198,1851.634888 1331.260254,1852.057617 
	C1332.496826,1852.453003 1333.188232,1853.059814 1333.188232,1853.059814 
	C1332.762573,1857.010864 1331.691162,1861.020264 1332.041382,1864.901367 
	C1332.854614,1873.915283 1338.914307,1877.428833 1346.541992,1872.661865 
	C1353.797241,1868.127686 1360.097900,1862.063110 1366.800171,1856.649048 
	C1369.074951,1854.811157 1371.294312,1852.904785 1374.230713,1850.452026 
	C1376.236938,1853.535034 1377.827759,1855.902344 1379.341064,1858.318237 
	C1388.086792,1872.279541 1398.636353,1876.456299 1413.167603,1869.349976 
	C1426.546021,1862.807251 1439.264771,1854.759888 1451.756348,1846.584106 
	C1544.549927,1785.850464 1634.152832,1720.642334 1722.078125,1653.100952 
	C1747.404663,1633.646118 1772.615723,1614.041260 1797.882202,1594.508301 
	C1798.877075,1593.739380 1799.898315,1593.004517 1801.805420,1591.585327 
	C1801.805420,1599.679688 1801.805420,1606.718628 1801.805420,1613.757568 
	C1802.378052,1613.903198 1802.950806,1614.048828 1803.523438,1614.194458 
	C1806.864380,1604.103271 1810.205322,1594.012085 1813.844116,1583.021362 
	C1815.592163,1583.932251 1816.934082,1584.548462 1818.194336,1585.301514 
	C1827.387817,1590.794678 1833.824463,1590.081055 1841.098389,1582.238159 
	C1843.787720,1579.338379 1846.003174,1575.939331 1848.102417,1572.561401 
	C1865.681519,1544.273926 1887.493774,1519.824219 1913.993286,1499.607788 
	C1916.833862,1497.440674 1919.833984,1495.482544 1924.408447,1494.526733 
	C1923.400391,1497.521362 1922.507446,1500.560547 1921.366455,1503.503662 
	C1907.536865,1539.178589 1892.673340,1574.389648 1875.957153,1608.840942 
	C1849.874634,1662.595825 1819.739868,1713.883057 1783.425415,1761.345703 
	C1766.058716,1784.043579 1747.428833,1805.780029 1729.171265,1827.786133 
	C1726.058350,1831.538086 1724.417603,1835.110229 1724.074219,1840.153931 
	C1723.583740,1847.357910 1722.074829,1854.654175 1719.861816,1861.545166 
	C1715.356323,1875.575562 1704.776611,1883.114868 1689.998657,1883.622803 
	C1683.341309,1883.851685 1676.669922,1883.684570 1670.004883,1883.670532 
	C1662.109619,1883.653809 1654.939575,1885.980713 1648.405273,1890.337769 
	C1641.078979,1895.222900 1639.930420,1899.067261 1643.474121,1907.174561 
	C1644.403076,1909.300171 1645.647705,1911.287842 1646.638916,1914.395752 
	C1646.296265,1915.702637 1646.062134,1915.952515 1645.828003,1916.202271 
M154.394531,1443.783936 
	C154.608505,1444.176025 154.822464,1444.568237 155.036453,1444.960327 
	C154.911133,1444.409424 154.785828,1443.858398 154.156815,1441.883789 
	C151.327515,1432.366821 148.557968,1422.831299 145.632690,1413.343872 
	C144.749649,1410.480225 143.394302,1406.857056 139.753586,1408.044434 
	C136.917435,1408.969360 134.018066,1411.478882 132.519928,1414.076294 
	C131.588516,1415.691162 132.485016,1419.332886 133.824799,1421.114380 
	C139.194031,1428.253418 144.990128,1435.078735 150.818069,1441.856934 
	C151.590683,1442.755493 153.455276,1442.715088 154.394531,1443.783936 
M206.778549,1480.072754 
	C206.778549,1480.072754 206.184845,1480.110596 206.184845,1480.110596 
	C206.184845,1480.110596 206.794434,1480.139526 205.923996,1478.956055 
	C199.937729,1466.740479 193.873657,1454.562378 187.991516,1442.296753 
	C183.824890,1433.608276 180.117813,1424.694580 175.793945,1416.088135 
	C173.185272,1410.895874 169.583527,1406.343750 161.720444,1403.910522 
	C163.357468,1407.650024 164.079193,1409.703369 165.109924,1411.587646 
	C171.812851,1423.841187 178.027039,1435.888550 178.774307,1450.627197 
	C179.567429,1466.270996 191.225281,1477.066650 206.778549,1480.072754 
z"/>
<path fill="#FEFEFE" opacity="1.000000" stroke="none" 
	d="
M1960.132812,1131.952026 
	C1956.119385,1114.997559 1954.779175,1097.735474 1956.121460,1080.463501 
	C1958.254761,1053.013672 1961.268555,1025.632446 1963.868286,998.218262 
	C1964.051270,996.288574 1963.891968,994.326294 1963.891968,991.059265 
	C1960.577881,994.201721 1958.174438,996.817810 1955.434082,999.013306 
	C1948.417114,1004.635193 1941.382080,1003.467468 1937.178833,995.493591 
	C1935.234619,991.805298 1934.427856,987.380981 1933.782104,983.186218 
	C1933.230469,979.602722 1933.881470,975.850586 1933.575928,972.208679 
	C1933.150391,967.138977 1931.834229,962.255127 1927.120728,959.371155 
	C1907.349243,947.273865 1893.242065,929.548157 1879.922485,911.233459 
	C1865.007935,890.725647 1852.791626,868.582581 1842.343140,845.457153 
	C1840.713013,841.849365 1840.775269,838.785828 1841.701904,835.008789 
	C1844.623779,823.099609 1848.552002,811.137085 1849.229736,799.035034 
	C1851.098145,765.666992 1840.664551,737.406799 1811.009155,718.693604 
	C1799.089355,711.171875 1788.084229,702.653809 1780.209229,690.709167 
	C1778.018188,687.385864 1775.596558,684.102844 1774.072388,680.469299 
	C1762.628540,653.187500 1750.475464,626.113892 1745.399780,596.672668 
	C1743.435303,585.277527 1741.825073,573.814575 1743.536987,562.151062 
	C1744.061890,558.574463 1743.618408,554.855652 1743.618408,550.893188 
	C1738.945068,549.989563 1735.938965,553.086182 1732.463745,554.526733 
	C1721.455322,559.090088 1710.640381,564.160950 1699.477295,568.298218 
	C1690.062622,571.787598 1681.219116,569.383850 1673.115234,563.599670 
	C1639.518188,539.619446 1606.036743,515.472229 1572.197754,491.837433 
	C1519.251831,454.857513 1466.514771,417.546783 1412.781616,381.738190 
	C1381.249023,360.724396 1348.003906,342.271759 1315.389160,322.903015 
	C1312.152588,320.980927 1307.958618,319.894623 1304.172974,319.795105 
	C1271.590088,318.938171 1240.072876,313.243744 1210.281006,299.629669 
	C1190.370117,290.530945 1172.578857,278.414703 1158.709229,261.201141 
	C1147.269775,247.003754 1144.540283,231.121750 1152.232544,214.522263 
	C1159.675171,198.461823 1173.763550,191.604340 1190.804199,190.408447 
	C1199.430420,189.803085 1208.106445,189.926056 1216.758179,189.661240 
	C1227.479614,189.333069 1238.085938,189.680450 1248.229858,195.113083 
	C1250.490601,191.474503 1252.389526,188.077652 1254.610962,184.906693 
	C1261.316895,175.334244 1269.926147,169.901398 1282.290283,170.179718 
	C1299.595703,170.569229 1316.994751,170.808563 1334.231079,169.498062 
	C1388.764771,165.351761 1440.488403,177.060425 1491.294189,195.308105 
	C1541.353516,213.287704 1588.700195,236.496796 1632.464844,266.843994 
	C1670.143433,292.970917 1704.263184,323.081055 1732.985352,358.877136 
	C1741.888550,369.973206 1748.768311,382.715790 1756.354126,394.842285 
	C1816.020630,490.224030 1875.589722,585.666748 1935.369019,680.977600 
	C1939.065674,686.871277 1940.642334,693.125610 1941.466187,699.649231 
	C1945.874146,734.556763 1950.333130,769.461853 1954.228149,804.428650 
	C1957.239746,831.465759 1959.943115,858.557617 1961.847412,885.690857 
	C1963.242920,905.574890 1963.137329,925.565002 1963.658203,945.508972 
	C1963.762085,949.483398 1963.673218,953.462769 1963.673218,957.771179 
	C1970.438477,958.984009 1974.023315,955.044434 1977.196289,950.879456 
	C1979.806641,947.453247 1981.938843,943.645752 1984.114136,939.908936 
	C1988.097534,933.066284 1993.814575,928.161926 2001.379150,924.279480 
	C2002.000000,926.133362 2002.000000,928.266663 2002.000000,931.200012 
	C1996.715698,948.279907 1990.632324,964.350891 1986.311279,980.882507 
	C1976.904785,1016.869812 1971.289185,1053.579956 1967.683350,1090.591064 
	C1966.399048,1103.772949 1965.221069,1116.965210 1963.196533,1130.995605 
	C1961.643433,1131.876343 1960.888062,1131.914185 1960.132812,1131.952026 
z"/>
<path fill="#FEFFFF" opacity="1.000000" stroke="none" 
	d="
M455.668518,1375.642944 
	C468.404694,1315.664307 481.036285,1256.521240 493.699310,1197.385132 
	C510.884674,1117.129883 528.140076,1036.889648 545.279602,956.624573 
	C560.823242,883.833130 576.229675,811.012451 591.740723,738.214050 
	C598.942383,704.414429 606.786316,670.740723 613.321838,636.813965 
	C617.805359,613.539429 640.228882,598.930542 659.700989,599.395569 
	C698.675171,600.326477 737.690247,599.964478 776.682495,599.562317 
	C800.158569,599.320251 810.211609,605.737854 819.633179,630.704834 
	C832.771362,665.521057 843.141357,701.382751 854.670532,736.805237 
	C866.713562,773.806396 878.709839,810.822693 890.755798,847.822876 
	C917.628784,930.365845 944.543457,1012.895325 971.389038,1095.447266 
	C979.191772,1119.441406 986.817749,1143.493164 995.131348,1169.409302 
	C998.281128,1165.575073 1000.576477,1162.983276 1002.651184,1160.225464 
	C1041.071289,1109.154907 1079.441162,1058.046509 1117.869629,1006.982178 
	C1186.318115,916.026855 1254.789917,825.089172 1323.269775,734.157532 
	C1349.700073,699.062012 1376.036011,663.893555 1402.751587,629.016235 
	C1408.385132,621.661682 1415.103271,615.000244 1422.030396,608.812866 
	C1428.929443,602.650513 1437.787598,599.892273 1446.931274,599.841614 
	C1490.258789,599.601501 1533.590332,599.459045 1576.916016,599.823425 
	C1593.028320,599.958923 1603.986328,611.342407 1603.437988,627.383179 
	C1603.089844,637.568420 1600.959229,647.775574 1598.833374,657.804321 
	C1578.712280,752.722656 1558.449951,847.610901 1538.169312,942.495239 
	C1521.708496,1019.507629 1505.096191,1096.487549 1488.680664,1173.509521 
	C1471.572021,1253.782471 1454.683838,1334.102417 1437.576904,1414.375854 
	C1423.171509,1481.972778 1408.355347,1549.483276 1394.216919,1617.135742 
	C1389.358154,1640.384399 1370.195312,1656.234863 1346.843262,1655.850220 
	C1306.191284,1655.180664 1265.520386,1655.669556 1224.857422,1655.652222 
	C1221.863647,1655.650879 1218.813354,1655.823242 1215.885376,1655.336426 
	C1197.203369,1652.230835 1186.957642,1637.169678 1190.582275,1618.044678 
	C1192.376343,1608.578125 1194.543579,1599.181519 1196.580078,1589.761597 
	C1217.574341,1492.651733 1238.624512,1395.553955 1259.561890,1298.431885 
	C1276.227661,1221.124390 1292.785645,1143.793457 1309.333618,1066.460571 
	C1314.959351,1040.170288 1320.407715,1013.842163 1326.324585,985.687439 
	C1323.608398,988.305481 1321.924927,989.533630 1320.736450,991.130371 
	C1269.064209,1060.551514 1217.452637,1130.017944 1165.795654,1199.450317 
	C1135.595825,1240.042236 1105.332764,1280.587280 1075.096191,1321.151978 
	C1064.552734,1335.296753 1054.219360,1349.605835 1043.370850,1363.512817 
	C1037.453125,1371.098999 1030.945801,1378.283813 1024.194336,1385.147949 
	C1012.663696,1396.871216 998.398621,1402.381226 981.943542,1402.339478 
	C961.278931,1402.287109 940.613770,1402.400879 919.949341,1402.307495 
	C897.693665,1402.206787 885.411804,1394.124146 877.358704,1372.975708 
	C871.804443,1358.389526 867.359497,1343.372070 862.655518,1328.472534 
	C848.039978,1282.179077 833.531311,1235.851929 818.992310,1189.534302 
	C801.167114,1132.747803 783.382141,1075.948608 765.518066,1019.174194 
	C759.638489,1000.488037 753.567017,981.862305 746.133911,963.138977 
	C744.786377,968.771362 743.309875,974.376404 742.110413,980.040161 
	C722.145569,1074.311035 702.237122,1168.593750 682.271240,1262.864380 
	C662.511597,1356.161133 642.691040,1449.445068 622.921204,1542.739746 
	C617.823608,1566.795288 612.241882,1590.767456 607.922607,1614.963623 
	C603.221313,1641.299561 582.207642,1656.498535 558.230774,1655.926880 
	C517.924072,1654.966187 477.577484,1655.730957 437.248413,1655.577515 
	C432.332306,1655.558838 427.237579,1654.973267 422.543427,1653.579834 
	C411.194214,1650.211182 403.158020,1639.940796 403.871124,1628.267456 
	C404.555756,1617.060181 406.390381,1605.836914 408.713806,1594.830444 
	C422.234039,1530.782837 436.040588,1466.795532 449.768982,1402.791870 
	C451.652527,1394.010498 453.639099,1385.251221 455.668518,1375.642944 
z"/>
<path fill="#D4DBDD" opacity="1.000000" stroke="none" 
	d="
M1960.057617,1132.638794 
	C1960.888062,1131.914185 1961.643433,1131.876343 1962.965942,1131.846069 
	C1963.533203,1134.083252 1963.533203,1136.312744 1963.533203,1138.542236 
	C1963.199219,1138.665161 1962.865234,1138.788208 1962.531250,1138.911133 
	C1961.681641,1137.049316 1960.832031,1135.187378 1960.057617,1132.638794 
z"/>
<path fill="#C8D2D4" opacity="1.000000" stroke="none" 
	d="
M1211.737549,1861.217773 
	C1211.547485,1862.416504 1210.989868,1862.915527 1210.078247,1863.852661 
	C1209.254028,1862.680420 1208.784058,1861.069946 1208.313965,1859.459473 
	C1209.332642,1859.812256 1210.351440,1860.165161 1211.737549,1861.217773 
z"/>
<path fill="#FEFEFE" opacity="1.000000" stroke="none" 
	d="
M1646.885254,1915.081177 
	C1647.744507,1915.504150 1648.249023,1916.298706 1648.753540,1917.093140 
	C1647.890381,1917.102295 1647.027344,1917.111450 1645.996094,1916.661377 
	C1646.062134,1915.952515 1646.296265,1915.702637 1646.885254,1915.081177 
z"/>
<path fill="#FEFEFE" opacity="1.000000" stroke="none" 
	d="
M1332.164795,1852.134766 
	C1332.215454,1851.473389 1332.598145,1851.130371 1332.980713,1850.787476 
	C1333.164551,1851.289185 1333.348511,1851.790771 1333.360352,1852.676147 
	C1333.188232,1853.059814 1332.496826,1852.453003 1332.164795,1852.134766 
z"/>
<path fill="#C8D2D4" opacity="1.000000" stroke="none" 
	d="
M1207.266602,1857.002930 
	C1207.290894,1857.452759 1207.098633,1857.604858 1206.906494,1857.756958 
	C1206.762573,1857.558838 1206.487549,1857.342773 1206.511475,1857.167603 
	C1206.535400,1856.992188 1206.858154,1856.857666 1207.266602,1857.002930 
z"/>
<path fill="#58737A" opacity="1.000000" stroke="none" 
	d="
M206.632034,1479.807373 
	C191.225281,1477.066650 179.567429,1466.270996 178.774307,1450.627197 
	C178.027039,1435.888550 171.812851,1423.841187 165.109924,1411.587646 
	C164.079193,1409.703369 163.357468,1407.650024 161.720444,1403.910522 
	C169.583527,1406.343750 173.185272,1410.895874 175.793945,1416.088135 
	C180.117813,1424.694580 183.824890,1433.608276 187.991516,1442.296753 
	C193.873657,1454.562378 199.937729,1466.740479 206.282288,1479.482422 
	C206.640564,1480.008911 206.632034,1479.807373 206.632034,1479.807373 
z"/>
<path fill="#58737B" opacity="1.000000" stroke="none" 
	d="
M154.814178,1443.109375 
	C153.455276,1442.715088 151.590683,1442.755493 150.818069,1441.856934 
	C144.990128,1435.078735 139.194031,1428.253418 133.824799,1421.114380 
	C132.485016,1419.332886 131.588516,1415.691162 132.519928,1414.076294 
	C134.018066,1411.478882 136.917435,1408.969360 139.753586,1408.044434 
	C143.394302,1406.857056 144.749649,1410.480225 145.632690,1413.343872 
	C148.557968,1422.831299 151.327515,1432.366821 154.432007,1442.534424 
	C154.707214,1443.185181 154.814178,1443.109375 154.814178,1443.109375 
z"/>
<path fill="#58737B" opacity="1.000000" stroke="none" 
	d="
M154.683868,1443.246338 
	C154.785828,1443.858398 154.911133,1444.409424 155.036438,1444.960327 
	C154.822464,1444.568237 154.608505,1444.176025 154.604355,1443.446655 
	C154.814178,1443.109375 154.707214,1443.185181 154.683868,1443.246338 
z"/>
<path fill="#58737A" opacity="1.000000" stroke="none" 
	d="
M206.717499,1480.074219 
	C206.794434,1480.139526 206.184845,1480.110596 206.184845,1480.110596 
	C206.184845,1480.110596 206.778549,1480.072754 206.705292,1479.940063 
	C206.632034,1479.807373 206.640564,1480.008911 206.717499,1480.074219 
z"/>
</svg>